<?xml version="1.0" standalone="no"?>
<!DOCTYPE svg PUBLIC "-//W3C//DTD SVG 20010904//EN"
 "http://www.w3.org/TR/2001/REC-SVG-20010904/DTD/svg10.dtd">
<svg version="1.0" xmlns="http://www.w3.org/2000/svg"
 width="812.000000pt" height="812.000000pt" viewBox="0 0 812.000000 812.000000"
 preserveAspectRatio="xMidYMid meet">
<metadata>
Created by potrace 1.14, written by Peter Selinger 2001-2017
</metadata>
<g transform="translate(0.000000,812.000000) scale(0.100000,-0.100000)"
fill="#000000" stroke="none">
<path d="M3889 6542 c-92 -147 -293 -472 -449 -722 -155 -250 -293 -471 -305
-490 -26 -40 -431 -692 -644 -1035 -78 -126 -169 -273 -202 -325 -32 -52 -63
-102 -68 -110 -5 -8 -95 -152 -199 -320 -105 -168 -292 -469 -417 -670 -125
-201 -286 -459 -358 -575 -72 -115 -174 -280 -227 -365 -53 -85 -190 -305
-304 -488 -114 -184 -206 -335 -204 -337 2 -2 17 -6 33 -9 17 -3 41 -8 55 -11
27 -5 1012 -9 1804 -6 548 2 545 2 595 62 26 32 157 251 406 684 128 222 193
347 210 402 l6 23 -141 -1 c-78 0 -144 1 -145 3 -2 2 51 98 117 213 123 216
143 251 195 345 17 30 63 111 102 178 39 68 71 126 71 128 0 2 -66 4 -146 4
l-145 0 20 29 c12 16 21 31 21 33 0 3 32 61 71 129 39 68 83 144 97 169 13 25
28 50 32 55 4 6 21 35 37 65 17 30 53 94 81 143 28 48 48 87 44 87 -4 0 -38 3
-77 6 -38 3 -92 6 -120 8 -33 2 -49 7 -47 15 1 7 53 99 114 204 61 106 143
247 181 315 38 67 72 122 76 122 3 0 67 -107 141 -237 74 -130 152 -266 173
-302 50 -87 61 -110 56 -115 -3 -3 -181 -15 -231 -16 -16 0 -16 -3 4 -37 11
-21 34 -63 51 -93 16 -30 33 -59 37 -65 4 -5 18 -30 32 -55 14 -25 75 -133
136 -241 62 -108 114 -203 117 -211 5 -13 -14 -15 -130 -15 -74 0 -137 -2
-140 -5 -4 -4 54 -110 325 -583 86 -150 160 -283 160 -287 0 -2 -62 -3 -137
-3 -76 1 -143 0 -150 -3 -14 -4 37 -111 122 -257 29 -49 62 -106 73 -125 10
-19 51 -89 89 -155 39 -66 123 -212 188 -325 64 -113 129 -218 143 -234 59
-63 -14 -59 1234 -57 626 1 1147 4 1159 6 12 2 39 5 61 7 27 1 37 6 34 15 -3
7 -69 115 -147 240 -208 334 -243 390 -509 818 -133 215 -249 401 -258 415 -9
14 -22 34 -28 45 -6 11 -210 340 -454 730 -243 391 -459 737 -479 770 -21 33
-152 243 -292 467 -139 224 -259 416 -264 425 -6 10 -48 79 -94 153 -145 233
-450 723 -648 1040 -104 168 -227 366 -273 440 -45 74 -88 140 -94 147 -8 9
-52 -54 -177 -255z m237 -75 c54 -86 204 -328 689 -1107 462 -743 632 -1017
655 -1055 13 -22 28 -41 32 -43 4 -2 8 -7 8 -12 0 -4 95 -160 211 -346 116
-187 219 -351 228 -367 9 -15 55 -89 102 -165 47 -75 173 -276 279 -447 106
-170 204 -329 219 -352 14 -23 47 -75 72 -115 26 -40 95 -152 154 -248 125
-202 455 -734 556 -894 38 -60 67 -111 65 -114 -3 -2 -487 -4 -1076 -5 -1056
0 -1071 0 -1098 20 -22 16 -203 318 -384 641 -17 30 -56 99 -89 153 -32 54
-55 100 -51 101 13 3 57 6 177 13 66 4 121 8 122 9 2 2 -35 66 -252 441 -50
88 -106 185 -123 215 -16 30 -49 86 -71 125 -23 38 -41 72 -41 75 0 3 63 5
141 5 122 -1 140 1 136 15 -2 8 -92 169 -200 358 -108 188 -190 342 -184 343
7 0 23 2 37 4 14 2 65 6 114 9 49 3 91 7 92 9 4 3 -570 995 -583 1008 -8 8
-21 -12 -101 -151 -10 -19 -79 -138 -153 -265 -73 -126 -179 -311 -236 -410
l-104 -180 63 -6 c35 -4 89 -9 121 -12 32 -2 60 -7 63 -9 2 -3 -55 -108 -127
-234 -72 -126 -142 -249 -156 -274 -14 -25 -43 -76 -65 -113 -22 -38 -38 -70
-36 -72 4 -4 175 -20 265 -24 7 -1 -29 -72 -79 -158 -50 -87 -101 -176 -113
-198 -13 -22 -73 -128 -135 -235 -152 -263 -151 -262 -148 -265 2 -2 66 -7
143 -10 77 -4 143 -10 148 -14 4 -4 -58 -122 -139 -262 -80 -140 -156 -272
-169 -294 -107 -189 -188 -315 -212 -331 -20 -13 -49 -19 -103 -21 -149 -4
-2063 -3 -2068 1 -2 3 36 69 85 148 98 156 758 1216 948 1523 64 105 130 210
146 235 16 25 103 164 193 310 90 146 180 290 199 320 19 30 144 231 277 445
134 215 316 507 405 650 89 143 285 458 435 700 151 242 330 530 398 640 69
110 152 244 185 297 33 54 63 95 68 92 4 -2 34 -46 65 -97z m-320 -2695 c-5
-8 -76 -4 -76 4 0 2 18 4 41 4 22 0 38 -4 35 -8z m-100 -719 c-7 -7 -87 -5
-95 3 -2 2 20 4 49 4 29 0 50 -3 46 -7z m-196 -914 c-18 -42 -25 -28 -9 16 8
20 15 31 17 25 2 -6 -2 -24 -8 -41z m-2863 -995 c-3 -3 -12 -4 -19 -1 -8 3 -5
6 6 6 11 1 17 -2 13 -5z"/>
</g>
</svg>
